<svg xmlns="http://www.w3.org/2000/svg" viewBox="0 0 600 400" role="img" aria-label="Illustration of grass">
  <defs>
    <linearGradient id="sky" x1="0" x2="0" y1="0" y2="1">
      <stop offset="0%" stop-color="#b3e5fc" />
      <stop offset="100%" stop-color="#e1f5fe" />
    </linearGradient>
    <linearGradient id="ground" x1="0" x2="0" y1="0" y2="1">
      <stop offset="0%" stop-color="#8bc34a" />
      <stop offset="100%" stop-color="#558b2f" />
    </linearGradient>
    <linearGradient id="blade" x1="0" x2="0" y1="1" y2="0">
      <stop offset="0%" stop-color="#2e7d32" />
      <stop offset="100%" stop-color="#66bb6a" />
    </linearGradient>
    <filter id="shadow" x="-20%" y="-20%" width="140%" height="140%">
      <feDropShadow dx="0" dy="1" stdDeviation="1" flood-color="#000" flood-opacity="0.15" />
    </filter>
  </defs>

  <rect width="600" height="400" fill="url(#sky)" />
  <rect y="280" width="600" height="120" fill="url(#ground)" />

  <!-- stylized sun -->
  <circle cx="520" cy="70" r="26" fill="#ffe082" opacity="0.9" />
  <circle cx="520" cy="70" r="36" fill="#ffecb3" opacity="0.5" />

  <!-- clumps of grass blades -->
  <g filter="url(#shadow)">
    <g transform="translate(60, 280)">
      <path d="M0,0 C5,-40 10,-80 14,-120" stroke="url(#blade)" stroke-width="4" fill="none" stroke-linecap="round"/>
      <path d="M10,0 C14,-30 18,-70 20,-105" stroke="url(#blade)" stroke-width="3" fill="none" stroke-linecap="round"/>
      <path d="M-8,0 C-6,-28 -4,-62 -2,-92" stroke="url(#blade)" stroke-width="3" fill="none" stroke-linecap="round"/>
      <path d="M24,0 C20,-24 16,-58 12,-88" stroke="url(#blade)" stroke-width="2.5" fill="none" stroke-linecap="round"/>
    </g>
    <g transform="translate(140, 280) scale(1.1)">
      <path d="M0,0 C8,-36 14,-74 18,-112" stroke="url(#blade)" stroke-width="4" fill="none" stroke-linecap="round"/>
      <path d="M-6,0 C-4,-26 -2,-58 0,-86" stroke="url(#blade)" stroke-width="3" fill="none" stroke-linecap="round"/>
      <path d="M10,0 C12,-22 16,-54 20,-80" stroke="url(#blade)" stroke-width="2.5" fill="none" stroke-linecap="round"/>
    </g>
    <g transform="translate(240, 280) scale(0.95)">
      <path d="M0,0 C6,-34 10,-66 12,-98" stroke="url(#blade)" stroke-width="3.5" fill="none" stroke-linecap="round"/>
      <path d="M-8,0 C-6,-30 -4,-62 -2,-92" stroke="url(#blade)" stroke-width="3" fill="none" stroke-linecap="round"/>
      <path d="M14,0 C16,-28 20,-60 24,-90" stroke="url(#blade)" stroke-width="3" fill="none" stroke-linecap="round"/>
    </g>
    <g transform="translate(340, 280)">
      <path d="M0,0 C5,-38 10,-76 14,-112" stroke="url(#blade)" stroke-width="3.5" fill="none" stroke-linecap="round"/>
      <path d="M12,0 C14,-26 18,-58 22,-86" stroke="url(#blade)" stroke-width="2.5" fill="none" stroke-linecap="round"/>
      <path d="M-10,0 C-8,-24 -6,-56 -4,-82" stroke="url(#blade)" stroke-width="2.5" fill="none" stroke-linecap="round"/>
    </g>
    <g transform="translate(450, 280) scale(1.1)">
      <path d="M0,0 C7,-40 12,-78 16,-118" stroke="url(#blade)" stroke-width="3.5" fill="none" stroke-linecap="round"/>
      <path d="M-7,0 C-5,-26 -3,-60 -1,-90" stroke="url(#blade)" stroke-width="3" fill="none" stroke-linecap="round"/>
      <path d="M10,0 C12,-24 16,-56 18,-86" stroke="url(#blade)" stroke-width="2.5" fill="none" stroke-linecap="round"/>
    </g>
  </g>

  <!-- near-field tufts -->
  <g opacity="0.85">
    <ellipse cx="110" cy="300" rx="70" ry="16" fill="#2e7d32" opacity="0.25" />
    <ellipse cx="290" cy="305" rx="90" ry="18" fill="#2e7d32" opacity="0.25" />
    <ellipse cx="480" cy="298" rx="75" ry="16" fill="#2e7d32" opacity="0.25" />
  </g>
</svg>

